<?xml version="1.0" encoding="utf-8"?>
<!-- Generator: Adobe Illustrator 27.0.0, SVG Export Plug-In . SVG Version: 6.00 Build 0)  -->
<svg version="1.1" id="Layer_2_00000070108508774530249120000009506467493344795813_"
	 xmlns="http://www.w3.org/2000/svg" xmlns:xlink="http://www.w3.org/1999/xlink" x="0px" y="0px" viewBox="0 0 19 17.2"
	 style="enable-background:new 0 0 19 17.2;" xml:space="preserve">
<style type="text/css">
	.st0{fill:#042A4F;}
</style>
<g id="Layer_1-2">
	<g id="RafikiApp_-_Self_Help">
		<g id="Component_17_1">
			<g id="Scroll_Group_5">
				<g id="Audios">
					<g id="Audio_5">
						<g id="Love_Audio-2">
							<g id="Group_137-2">
								<path id="Path_536-4" class="st0" d="M9.5,17.2L1.6,9.3c-2.1-2.1-2.1-5.6,0-7.7s5.6-2.1,7.7,0l0.2,0.2l0.2-0.2
									c2.1-2.1,5.6-2.1,7.7,0s2.1,5.6,0,7.7l0,0L9.5,17.2L9.5,17.2z M5.5,1.3c-2.3,0-4.2,1.8-4.2,4.2c0,1.1,0.4,2.2,1.2,3l7,7l7-7
									c1.6-1.7,1.6-4.4,0-6s-4.3-1.6-5.9,0l-1,1.1l-1-1.1C7.7,1.7,6.6,1.3,5.5,1.3L5.5,1.3z"/>
							</g>
						</g>
					</g>
				</g>
			</g>
		</g>
	</g>
</g>
</svg>
