<?xml version="1.0" encoding="UTF-8"?>
<svg id="Layer_2" data-name="Layer 2" xmlns="http://www.w3.org/2000/svg" viewBox="0 0 18.95 17.18">
  <defs>
    <style>
      .cls-1 {
        fill: #fff;
      }
    </style>
  </defs>
  <g id="Layer_1-2" data-name="Layer 1">
    <g id="RafikiApp_-_Self_Help" data-name="RafikiApp - Self Help">
      <g id="Component_17_1" data-name="Component 17 1">
        <g id="Scroll_Group_5" data-name="Scroll Group 5">
          <g id="Audios">
            <g id="Audio_5" data-name="Audio 5">
              <g id="Love_Audio-2" data-name="Love Audio-2">
                <g id="Group_137-2" data-name="Group 137-2">
                  <path id="Path_536-4" data-name="Path 536-4" class="cls-1" d="M9.47,17.18L1.57,9.27C-.52,7.17-.52,3.67,1.57,1.57S7.17-.52,9.27,1.57l.2,.2,.2-.2c2.1-2.1,5.6-2.1,7.7,0s2.1,5.6,0,7.7h0l-7.9,7.9ZM5.48,1.27C3.17,1.27,1.27,3.07,1.27,5.48c0,1.1,.4,2.2,1.2,3l7,7,7-7c1.6-1.7,1.6-4.4,0-6s-4.3-1.6-5.9,0l-1,1.1-1-1.1c-.9-.8-2-1.2-3.1-1.2Z"/>
                </g>
              </g>
            </g>
          </g>
        </g>
      </g>
    </g>
  </g>
</svg>