<?xml version="1.0" encoding="UTF-8"?>
<svg id="Layer_2" data-name="Layer 2" xmlns="http://www.w3.org/2000/svg" viewBox="0 0 30 30">
  <defs>
    <style>
      .cls-1 {
        fill: #fff;
      }

      .cls-2 {
        fill: #ffba42;
      }
    </style>
  </defs>
  <g id="Layer_1-2" data-name="Layer 1">
    <g id="RafikiApp_-_Self_Help" data-name="RafikiApp - Self Help">
      <g id="Component_17_1" data-name="Component 17 1">
        <g id="Scroll_Group_5" data-name="Scroll Group 5">
          <g id="Audios">
            <g id="Audio_6" data-name="Audio 6">
              <g id="Play_Button_Playlist" data-name="Play Button Playlist">
                <path id="Rectangle_609" data-name="Rectangle 609" class="cls-2" d="M2,0H28c1.1,0,2,.9,2,2V28c0,1.1-.9,2-2,2H2c-1.1,0-2-.9-2-2V2C0,.9,.9,0,2,0Z"/>
                <g id="Group_136" data-name="Group 136">
                  <g id="Group_135" data-name="Group 135">
                    <path id="Path_536" data-name="Path 536" class="cls-1" d="M11,6.57c.3,0,.7,.1,1,.3l11.2,6.5c.9,.5,1.2,1.7,.7,2.6-.2,.3-.4,.5-.7,.7l-11.3,6.5c-.9,.5-2.1,.2-2.6-.7-.2-.3-.3-.6-.3-1V8.57c0-.5,.2-1,.6-1.4,.4-.4,.9-.6,1.4-.6Zm0,15.8c.2,0,.3,0,.5-.1l11.2-6.5c.4-.2,.5-.8,.3-1.2-.1-.1-.2-.3-.3-.3L11.4,7.77c-.1-.1-.3-.2-.4-.2-.3,0-.5,.1-.7,.3-.2,.2-.3,.4-.3,.7v13c0,.4,.5,.8,1,.8h0Z"/>
                  </g>
                </g>
              </g>
            </g>
          </g>
        </g>
      </g>
    </g>
  </g>
</svg>