<svg xmlns="http://www.w3.org/2000/svg" xmlns:xlink="http://www.w3.org/1999/xlink" width="65.04" height="82.039" viewBox="0 0 65.04 82.039"><defs><clipPath id="a"><rect width="37.17" height="37.17" fill="#1f1f1f"/></clipPath></defs><rect width="65" height="82" rx="5" fill="#5fe7ff"/><path d="M3.944.789A3.159,3.159,0,0,0,.789,3.944V78.1A3.159,3.159,0,0,0,3.944,81.25h56.8A3.159,3.159,0,0,0,63.9,78.1V3.944A3.159,3.159,0,0,0,60.741.789H3.944m0-.789h56.8a3.944,3.944,0,0,1,3.944,3.944V78.1a3.944,3.944,0,0,1-3.944,3.944H3.944A3.944,3.944,0,0,1,0,78.1V3.944A3.944,3.944,0,0,1,3.944,0Z" transform="translate(0.355)" fill="#5fe7ff"/><text transform="translate(31 71)" fill="#1f1f1f" font-size="9" font-family="Roboto-Medium, Roboto" font-weight="500"><tspan x="-12.23" y="0">Afraid</tspan></text><g transform="translate(13.765 18.932)"><g clip-path="url(#a)"><path d="M18.585,37.17A18.585,18.585,0,1,1,37.17,18.585,18.606,18.606,0,0,1,18.585,37.17m0-35.912A17.327,17.327,0,1,0,35.912,18.585,17.347,17.347,0,0,0,18.585,1.258" fill="#1f1f1f"/><path d="M171.215,205.684a3.15,3.15,0,1,1,2.735-3.122,2.951,2.951,0,0,1-2.735,3.122m0-4.988a1.916,1.916,0,1,0,1.478,1.866,1.707,1.707,0,0,0-1.478-1.866" transform="translate(-158.431 -187.542)" fill="#1f1f1f"/><path d="M365.7,205.684a3.15,3.15,0,1,1,2.735-3.122,2.951,2.951,0,0,1-2.735,3.122m0-4.988a1.916,1.916,0,1,0,1.478,1.866A1.707,1.707,0,0,0,365.7,200.7" transform="translate(-341.316 -187.542)" fill="#1f1f1f"/></g><path d="M-.408,2.155A.689.689,0,0,1-1,1.445.762.762,0,0,1-.466.582L11.387-1c.326-.043.616.273.649.706A.762.762,0,0,1,11.5.574L-.348,2.151A.452.452,0,0,1-.408,2.155Z" transform="translate(13.066 25.848)" fill="#1f1f1f"/></g></svg>