<svg xmlns="http://www.w3.org/2000/svg" xmlns:xlink="http://www.w3.org/1999/xlink" width="65.5" height="83.079" viewBox="0 0 65.5 83.079"><defs><clipPath id="a"><rect width="37.478" height="37.478" fill="#fff"/></clipPath></defs><rect width="65.5" height="82.482" rx="5" transform="translate(0 0.597)" fill="#e60000"/><path d="M3.977.8A3.185,3.185,0,0,0,.8,3.977V78.743a3.185,3.185,0,0,0,3.182,3.182H61.245a3.185,3.185,0,0,0,3.182-3.182V3.977A3.185,3.185,0,0,0,61.245.8H3.977m0-.8H61.245a3.977,3.977,0,0,1,3.977,3.977V78.743a3.977,3.977,0,0,1-3.977,3.977H3.977A3.977,3.977,0,0,1,0,78.743V3.977A3.977,3.977,0,0,1,3.977,0Z" fill="#e60100"/><text transform="translate(31.408 71.458)" fill="#fff" font-size="9" font-family="Roboto-Medium, Roboto" font-weight="500"><tspan x="-11.755" y="0">Angry</tspan></text><g transform="translate(13.522 19.144)"><g clip-path="url(#a)"><path d="M18.739,37.478A18.739,18.739,0,1,1,37.478,18.739,18.761,18.761,0,0,1,18.739,37.478m0-36.21A17.471,17.471,0,1,0,36.21,18.739,17.491,17.491,0,0,0,18.739,1.268" fill="#fff"/><path d="M357.254,299.384a3.288,3.288,0,1,1,2.851-3.259,3.079,3.079,0,0,1-2.851,3.259m0-5.249a2.043,2.043,0,1,0,1.583,1.991,1.824,1.824,0,0,0-1.583-1.991" transform="translate(-333.088 -275.252)" fill="#fff"/><path d="M362.185,233.947a.634.634,0,0,1-.52-.995,8.662,8.662,0,0,1,7.9-4.111.634.634,0,0,1-.07,1.266,7.341,7.341,0,0,0-6.788,3.567.632.632,0,0,1-.522.273" transform="translate(-339.806 -215.065)" fill="#fff"/><path d="M176.791,299.384a3.288,3.288,0,1,1,2.851-3.259,3.079,3.079,0,0,1-2.851,3.259m0-5.249a2.043,2.043,0,1,0,1.583,1.991,1.824,1.824,0,0,0-1.583-1.991" transform="translate(-163.479 -275.252)" fill="#fff"/><path d="M126.368,233.95a.635.635,0,0,1-.522-.272,7.321,7.321,0,0,0-6.789-3.568.644.644,0,0,1-.668-.6.635.635,0,0,1,.6-.668,8.671,8.671,0,0,1,7.9,4.11.634.634,0,0,1-.52,1" transform="translate(-111.267 -215.067)" fill="#fff"/><path d="M224.458,440.371a.625.625,0,0,1-.383-.13c-3.3-2.5-6.5-2.5-9.793,0a.633.633,0,1,1-.765-1.009c3.756-2.849,7.566-2.851,11.323,0a.634.634,0,0,1-.383,1.139" transform="translate(-200.439 -410.806)" fill="#fff"/></g></g></svg>