<svg xmlns="http://www.w3.org/2000/svg" xmlns:xlink="http://www.w3.org/1999/xlink" width="65.8" height="82" viewBox="0 0 65.8 82"><defs><clipPath id="a"><rect width="37.348" height="37.348" fill="#3c3d3d"/></clipPath></defs><rect width="65.8" height="81.641" rx="5" fill="#dcdcdc"/><path d="M4,.8A3.2,3.2,0,0,0,.8,4V77.506A3.2,3.2,0,0,0,4,80.7h57.53a3.2,3.2,0,0,0,3.2-3.2V4a3.2,3.2,0,0,0-3.2-3.2H4M4,0h57.53a4,4,0,0,1,4,4V77.506a4,4,0,0,1-4,4H4a4,4,0,0,1-4-4V4A4,4,0,0,1,4,0Z" transform="translate(0 0.499)" fill="#dcdcdc"/><text transform="translate(31.185 72.363)" fill="#3c3d3d" font-size="9" font-family="Roboto-Medium, Roboto" font-weight="500"><tspan x="-19.375" y="0">Confused</tspan></text><g transform="translate(14.383 19.882)"><g clip-path="url(#a)"><path d="M18.674,37.348A18.674,18.674,0,1,1,37.348,18.674,18.7,18.7,0,0,1,18.674,37.348m0-36.085a17.41,17.41,0,1,0,17.41,17.41,17.43,17.43,0,0,0-17.41-17.41" fill="#3c3d3d"/><path d="M336.979,214.726a6.646,6.646,0,1,1,6.645-6.646,6.654,6.654,0,0,1-6.645,6.646m0-12.029a5.383,5.383,0,1,0,5.382,5.383,5.388,5.388,0,0,0-5.382-5.383" transform="translate(-310.534 -189.361)" fill="#3c3d3d"/><path d="M410.139,279.13a2.116,2.116,0,1,1-2.116-2.116,2.116,2.116,0,0,1,2.116,2.116" transform="translate(-381.578 -260.411)" fill="#3c3d3d"/><path d="M373.741,117.307a.631.631,0,0,1-.409-.151,9.212,9.212,0,0,0-7.39-1.969.631.631,0,1,1-.142-1.254,10.521,10.521,0,0,1,8.35,2.262.632.632,0,0,1-.409,1.113" transform="translate(-343.348 -107.014)" fill="#3c3d3d"/><path d="M77.664,214.726a6.646,6.646,0,1,1,6.645-6.646,6.654,6.654,0,0,1-6.645,6.646m0-12.029a5.383,5.383,0,1,0,5.382,5.383,5.388,5.388,0,0,0-5.382-5.383" transform="translate(-66.761 -189.361)" fill="#3c3d3d"/><path d="M146.594,279.13a2.116,2.116,0,1,0,2.116-2.116,2.116,2.116,0,0,0-2.116,2.116" transform="translate(-137.808 -260.411)" fill="#3c3d3d"/><path d="M106.129,117.275a.632.632,0,0,1-.409-1.113,10.5,10.5,0,0,1,8.351-2.262.631.631,0,1,1-.142,1.254,9.236,9.236,0,0,0-7.391,1.969.631.631,0,0,1-.409.151" transform="translate(-99.175 -106.983)" fill="#3c3d3d"/><path d="M239.775,489.473h-8.427a.632.632,0,0,1,0-1.264h8.427a.632.632,0,1,1,0,1.264" transform="translate(-216.888 -458.947)" fill="#3c3d3d"/></g></g></svg>