<svg xmlns="http://www.w3.org/2000/svg" xmlns:xlink="http://www.w3.org/1999/xlink" width="65.132" height="82" viewBox="0 0 65.132 82"><defs><clipPath id="a"><rect width="37.134" height="37.134" fill="#3c3d3d"/></clipPath></defs><rect width="65" height="82" rx="5" transform="translate(0.132)" fill="#ffdd21"/><path d="M3.94.788A3.156,3.156,0,0,0,.788,3.94v74.08A3.156,3.156,0,0,0,3.94,81.173H60.683a3.156,3.156,0,0,0,3.152-3.152V3.94A3.156,3.156,0,0,0,60.683.788H3.94M3.94,0H60.683a3.94,3.94,0,0,1,3.94,3.94v74.08a3.94,3.94,0,0,1-3.94,3.94H3.94A3.94,3.94,0,0,1,0,78.021V3.94A3.94,3.94,0,0,1,3.94,0Z" fill="#ffdd20"/><text transform="translate(32.132 71)" fill="#3c3d3d" font-size="9" font-family="Roboto-Medium, Roboto" font-weight="500"><tspan x="-12.865" y="0">Happy</tspan></text><g transform="translate(13.397 18.914)"><g clip-path="url(#a)"><path d="M18.567,37.134A18.567,18.567,0,1,1,37.134,18.567,18.589,18.589,0,0,1,18.567,37.134m0-35.878A17.311,17.311,0,1,0,35.878,18.567,17.33,17.33,0,0,0,18.567,1.256" fill="#3c3d3d"/><path d="M120.242,378.509a12.728,12.728,0,0,1-12.1-9.508.627.627,0,0,1,.838-.749,29.592,29.592,0,0,0,22.525.014.629.629,0,0,1,.837.751,12.73,12.73,0,0,1-12.1,9.492m-10.486-8.623a11.146,11.146,0,0,0,20.967.014,30.6,30.6,0,0,1-20.967-.014" transform="translate(-101.675 -346.265)" fill="#3c3d3d"/><path d="M355.8,184.887a.625.625,0,0,1-.348-.107l-5.831-3.9a.627.627,0,0,1,0-1.043l5.831-3.9a.628.628,0,1,1,.7,1.043L351.1,180.36l5.051,3.378a.628.628,0,0,1-.35,1.15" transform="translate(-328.52 -165.354)" fill="#3c3d3d"/><path d="M155.485,184.894a.628.628,0,0,1-.35-1.15l5.051-3.378-5.051-3.378a.628.628,0,0,1,.7-1.043l5.831,3.9a.627.627,0,0,1,0,1.043l-5.831,3.9a.625.625,0,0,1-.348.107" transform="translate(-145.628 -165.361)" fill="#3c3d3d"/></g></g></svg>