<svg xmlns="http://www.w3.org/2000/svg" xmlns:xlink="http://www.w3.org/1999/xlink" width="66.985" height="83.079" viewBox="0 0 66.985 83.079"><defs><clipPath id="a"><rect width="37.765" height="37.765" fill="#2f2f2f"/></clipPath></defs><g transform="translate(0.5 0.5)"><g transform="translate(0.121 0.604)" fill="#e6e6fa" stroke="#e6e6fa" stroke-width="1"><rect width="66.267" height="80.993" rx="5" stroke="none"/><rect x="0.5" y="0.5" width="65.267" height="79.993" rx="4.5" fill="none"/></g><path d="M4.023.8A3.222,3.222,0,0,0,.8,4.023V78.055a3.222,3.222,0,0,0,3.219,3.219H61.962a3.222,3.222,0,0,0,3.219-3.219V4.023A3.222,3.222,0,0,0,61.962.8H4.023m0-.8H61.962a4.023,4.023,0,0,1,4.023,4.023V78.055a4.023,4.023,0,0,1-4.023,4.023H4.023A4.023,4.023,0,0,1,0,78.055V4.023A4.023,4.023,0,0,1,4.023,0Z" fill="#fff" stroke="#e6e6fa" stroke-width="1"/><text transform="translate(30.847 71.189)" fill="#2f2f2f" font-size="8" font-family="Roboto-Medium, Roboto" font-weight="500"><tspan x="-15.559" y="0">Helpless</tspan></text><g transform="translate(14.11 19.52)"><g clip-path="url(#a)"><path d="M18.881,37.765A18.882,18.882,0,1,1,37.764,18.882,18.9,18.9,0,0,1,18.881,37.765m0-36.487a17.6,17.6,0,1,0,17.6,17.6,17.624,17.624,0,0,0-17.6-17.6" transform="translate(0.001)" fill="#2f2f2f"/><path d="M160.733,357.491a.634.634,0,0,1-.236-.046,24.921,24.921,0,0,0-18.963-.012.639.639,0,0,1-.851-.764,10.637,10.637,0,0,1,20.665.014.639.639,0,0,1-.616.808M151,354.284a26.468,26.468,0,0,1,8.693,1.5,9.3,9.3,0,0,0-17.345-.012A26.408,26.408,0,0,1,151,354.284" transform="translate(-132.135 -327.44)" fill="#2f2f2f"/><path d="M360.551,202.137c-2.677,0-4.9-1.363-6.627-4.072a.638.638,0,1,1,1.076-.687c1.914,3,4.406,4.045,7.632,3.189a.638.638,0,1,1,.328,1.234,9.36,9.36,0,0,1-2.409.336" transform="translate(-332.38 -185.138)" fill="#2f2f2f"/><path d="M370.95,99.751a.643.643,0,0,1-.244-.049,9.893,9.893,0,0,1-5.209-5.337.638.638,0,0,1,1.163-.528,8.663,8.663,0,0,0,4.533,4.685.639.639,0,0,1-.244,1.229" transform="translate(-343.293 -87.796)" fill="#2f2f2f"/><path d="M113.6,202.137a9.359,9.359,0,0,1-2.409-.336.638.638,0,1,1,.328-1.234c3.22.857,5.715-.188,7.632-3.189a.638.638,0,1,1,1.076.687c-1.727,2.709-3.95,4.072-6.627,4.072" transform="translate(-104.006 -185.138)" fill="#2f2f2f"/><path d="M156.871,99.764a.639.639,0,0,1-.244-1.229,8.663,8.663,0,0,0,4.533-4.685.638.638,0,0,1,1.163.528,9.893,9.893,0,0,1-5.209,5.337.644.644,0,0,1-.244.049" transform="translate(-146.764 -87.809)" fill="#2f2f2f"/></g></g></g></svg>