<svg xmlns="http://www.w3.org/2000/svg" xmlns:xlink="http://www.w3.org/1999/xlink" width="65.018" height="82.079" viewBox="0 0 65.018 82.079"><defs><clipPath id="a"><rect width="36.836" height="36.836" fill="#fff"/></clipPath></defs><rect width="64.899" height="81.725" rx="4" transform="translate(0.119)" fill="indigo"/><path d="M3.94.788A3.156,3.156,0,0,0,.788,3.94v74.08A3.156,3.156,0,0,0,3.94,81.173H60.683a3.156,3.156,0,0,0,3.152-3.152V3.94A3.156,3.156,0,0,0,60.683.788H3.94M3.94,0H60.683a3.94,3.94,0,0,1,3.94,3.94v74.08a3.94,3.94,0,0,1-3.94,3.94H3.94A3.94,3.94,0,0,1,0,78.021V3.94A3.94,3.94,0,0,1,3.94,0Z" transform="translate(0 0.118)" fill="indigo"/><text transform="translate(31.953 70.293)" fill="#fff" font-size="9" font-family="Roboto-Medium, Roboto" font-weight="500"><tspan x="-8.886" y="0">Hurt</tspan></text><g transform="translate(14.186 20.812)"><g clip-path="url(#a)"><path d="M279.485,412.745q-.394,0-.787-.021a.624.624,0,0,1-.588-.656.645.645,0,0,1,.656-.589,14.026,14.026,0,0,0,4.593-.531.212.212,0,0,0,.141-.135.3.3,0,0,0-.03-.268,4.716,4.716,0,0,0-3.986-2.064,5.138,5.138,0,0,0-1.241.151.623.623,0,0,1-.3-1.209,6.38,6.38,0,0,1,1.542-.188,5.971,5.971,0,0,1,5.036,2.64,1.551,1.551,0,0,1,.144,1.379,1.45,1.45,0,0,1-.964.891,15.355,15.355,0,0,1-4.215.6" transform="translate(-261.067 -383.162)" fill="#fff"/><path d="M115.829,343.61c-2.673,0-4.848-2.451-4.848-5.462a12.324,12.324,0,0,1,4.465-9.051.624.624,0,0,1,.769,0c.182.144,4.461,3.594,4.461,9.048,0,3.012-2.175,5.462-4.848,5.462m0-13.191a11.065,11.065,0,0,0-3.6,7.729c0,2.325,1.615,4.216,3.6,4.216s3.6-1.891,3.6-4.216a11.134,11.134,0,0,0-3.6-7.729" transform="translate(-104.42 -309.519)" fill="#fff"/><path d="M18.418,36.836a18.417,18.417,0,0,1-5.37-.8.623.623,0,0,1,.363-1.192A17.183,17.183,0,1,0,5.721,29.98a.623.623,0,1,1-.921.838,18.418,18.418,0,1,1,13.618,6.018" transform="translate(0)" fill="#fff"/><path d="M362.005,224.349a2.951,2.951,0,1,1,2.568-2.926,2.768,2.768,0,0,1-2.568,2.926m0-4.606a1.728,1.728,0,1,0,1.322,1.68,1.535,1.535,0,0,0-1.322-1.68" transform="translate(-338.189 -205.579)" fill="#fff"/><path d="M398.482,146.37a.623.623,0,0,1-.572-.376,6.619,6.619,0,0,0-5.081-3.922.622.622,0,0,1,.264-1.216,7.882,7.882,0,0,1,5.96,4.645.623.623,0,0,1-.572.87" transform="translate(-369.146 -132.515)" fill="#fff"/><path d="M179.375,224.349a2.951,2.951,0,1,1,2.568-2.926,2.768,2.768,0,0,1-2.568,2.926m0-4.606a1.728,1.728,0,1,0,1.322,1.68,1.535,1.535,0,0,0-1.322-1.68" transform="translate(-166.356 -205.579)" fill="#fff"/><path d="M116.957,146.37a.623.623,0,0,1-.572-.87,7.879,7.879,0,0,1,5.959-4.645.622.622,0,1,1,.264,1.216,6.619,6.619,0,0,0-5.08,3.922.623.623,0,0,1-.572.376" transform="translate(-109.457 -132.515)" fill="#fff"/></g></g></svg>