<?xml version="1.0" encoding="utf-8"?>
<!-- Generator: Adobe Illustrator 27.0.0, SVG Export Plug-In . SVG Version: 6.00 Build 0)  -->
<svg version="1.1" id="Layer_1" xmlns="http://www.w3.org/2000/svg" xmlns:xlink="http://www.w3.org/1999/xlink" x="0px" y="0px"
	 viewBox="0 0 566.6 309.6" style="enable-background:new 0 0 566.6 309.6;" xml:space="preserve">
<style type="text/css">
	.st0{fill:#1171B8;}
	.st1{fill:#FDB942;}
</style>
<path class="st0" d="M11.4,15.4h52.4c8,0,14.7,0.6,19,1.4c19.2,4.1,31.4,20,31.4,40.8s-9.8,34-29.7,39.1l38.3,60.3H81.2L47.6,97.9
	c0,0,0,62.8-0.1,63l-36-22.5L11.4,15.4L11.4,15.4L11.4,15.4z M47.6,79.5h8.8c13,0,20.6-6.7,20.6-18.5s-6.5-17.1-19.4-17.1h-10
	L47.6,79.5C47.6,79.5,47.6,79.5,47.6,79.5z"/>
<path class="st0" d="M203.7,59.4h35.2v97.6h-35.2v-12.4c-5.3,10.2-14.3,15.3-27.5,15.3c-24.9,0-42.4-21.4-42.4-51.8
	s18.5-51.3,42.8-51.3c9.6,0,18.3,3.3,23.8,9.2c1.2,1.4,2,2.6,3.3,5.3L203.7,59.4L203.7,59.4L203.7,59.4z M167.4,108.3
	c0,13.8,7.9,23,19.2,23s19.2-9.2,19.2-23s-8.2-22.6-19.4-22.6S167.4,95,167.4,108.3L167.4,108.3z"/>
<path class="st0" d="M255.4,59.4h14.3v-13c0-19.8,14.7-33.8,35.5-33.8c8.5,0,15.5,1.2,25.1,4.1l-3.3,23.6c-3-0.8-5.3-1.2-8-1.2
	c-9.4,0-14.3,4.7-14.3,13.4v6.9h22.6v28.5h-22.6v113.4h-35V87.9h-14.3V59.4C255.4,59.4,255.4,59.4,255.4,59.4z"/>
<path class="st0" d="M356.2,15.6c9.5,0,17.4,7.7,17.4,16.9s-7.9,17.1-17.4,17.1s-17.4-7.7-17.4-17.1S346.5,15.6,356.2,15.6
	C356.2,15.6,356.2,15.6,356.2,15.6z M338.9,59.4h34.8v141.8h-34.8V59.4z"/>
<path class="st0" d="M399.9,15.4h35.2v86.6l27.7-42.6h40.5l-33,47.1l36.1,50.5h-42.8l-28.5-45.2v45.2h-35.2L399.9,15.4L399.9,15.4
	L399.9,15.4z"/>
<path class="st1" d="M485.8,182c-21.4,8.1-43.9,16.6-65.6,23.9c-52.1,17.6-107.9,31-161.3,31.8c-89.2,2.5-175.6-32-247.4-84
	c19.5,44.5,59.4,82.4,101.1,106.6c113.9,66.1,254.9,39.4,354.8-40.2c14.3-11.4,27.8-23.7,40.3-36.9c4.1-4.5,8.1-9,12-13.8
	C508.1,173.3,497,177.7,485.8,182L485.8,182L485.8,182z M281.5,273.1c-26.9,4-55.2,1.8-80.4-7.2c-5.8-2.2-11.8-4.5-16.6-7.9
	c5.7,2.1,11.9,3.4,17.9,4.7c19.5,4.1,39.6,5.8,59.6,5.3c23.4-0.6,45.9-4.8,68.4-10.9C315.7,265.2,298.8,270.5,281.5,273.1
	L281.5,273.1L281.5,273.1z"/>
<rect x="518" y="59.4" class="st0" width="34.8" height="55.7"/>
<path class="st1" d="M533.9,128.3c10.3,0,18.9,8.4,18.9,18.4s-8.5,18.6-18.9,18.6s-18.9-8.4-18.9-18.6S523.4,128.3,533.9,128.3z"/>
</svg>
