<?xml version="1.0" encoding="UTF-8"?>
<svg id="Layer_1" data-name="Layer 1" xmlns="http://www.w3.org/2000/svg" viewBox="0 0 566.59 309.63">
  <defs>
    <style>
      .cls-1 {
        fill: #fff;
      }

      .cls-2 {
        fill: #fdb942;
      }
    </style>
  </defs>
  <path class="cls-1" d="M11.43,15.44H63.87c8.05,0,14.73,.59,19.05,1.38,19.25,4.12,31.43,20.03,31.43,40.85s-9.82,33.98-29.66,39.09l38.3,60.3h-41.84l-33.59-59.12s-.04,62.8-.11,62.98l-36.03-22.53V15.44h0ZM47.57,79.47h8.84c12.96,0,20.62-6.68,20.62-18.46s-6.48-17.09-19.44-17.09h-10.02v35.55h0Z"/>
  <path class="cls-1" d="M203.72,59.43h35.16v97.62h-35.16v-12.37c-5.3,10.21-14.34,15.32-27.5,15.32-24.94,0-42.42-21.41-42.42-51.85s18.46-51.26,42.82-51.26c9.62,0,18.27,3.34,23.77,9.23,1.18,1.38,1.96,2.55,3.34,5.3v-11.98h0Zm-36.34,48.9c0,13.75,7.86,22.98,19.25,22.98s19.25-9.23,19.25-22.98-8.25-22.59-19.44-22.59-19.05,9.23-19.05,22.59h-.01Z"/>
  <path class="cls-1" d="M255.38,59.43h14.34v-12.96c0-19.84,14.73-33.78,35.55-33.78,8.45,0,15.52,1.18,25.14,4.12l-3.34,23.57c-2.95-.79-5.3-1.18-8.05-1.18-9.43,0-14.34,4.71-14.34,13.36v6.87h22.59v28.48h-22.59v113.35h-34.96V87.91h-14.34v-28.48h0Z"/>
  <path class="cls-1" d="M356.23,15.63c9.53,0,17.38,7.66,17.38,16.89s-7.86,17.09-17.38,17.09-17.38-7.66-17.38-17.09,7.69-16.89,17.38-16.89h0Zm-17.38,43.8h34.76V201.26h-34.76V59.43Z"/>
  <path class="cls-1" d="M399.94,15.44h35.16V102.06l27.69-42.62h40.46l-33,47.14,36.14,50.48h-42.82l-28.48-45.17v45.17h-35.16V15.45h.01Z"/>
  <path class="cls-2" d="M485.77,182.02c-21.44,8.14-43.87,16.64-65.6,23.89-52.12,17.65-107.93,30.96-161.34,31.84-89.22,2.54-175.59-31.96-247.41-83.98,19.51,44.46,59.42,82.41,101.12,106.57,113.92,66.11,254.94,39.42,354.76-40.21,14.28-11.37,27.78-23.66,40.27-36.95,4.08-4.54,8.14-9.04,11.98-13.79-11.46,3.94-22.58,8.35-33.78,12.63h0Zm-204.24,91.12c-26.86,3.98-55.24,1.77-80.39-7.2-5.76-2.17-11.79-4.47-16.63-7.92,5.71,2.14,11.88,3.38,17.91,4.7,19.49,4.06,39.61,5.81,59.61,5.31,23.42-.62,45.93-4.81,68.37-10.85-14.67,8.01-31.61,13.32-48.87,15.95h0Z"/>
  <rect class="cls-1" x="517.99" y="59.43" width="34.76" height="55.7"/>
  <path class="cls-2" d="M533.89,128.27c10.33,0,18.86,8.35,18.86,18.41s-8.52,18.62-18.86,18.62-18.86-8.35-18.86-18.62,8.34-18.41,18.86-18.41Z"/>
</svg>