<svg xmlns="http://www.w3.org/2000/svg" xmlns:xlink="http://www.w3.org/1999/xlink" width="64.958" height="81.961" viewBox="0 0 64.958 81.961"><defs><clipPath id="a"><rect width="36.985" height="36.985" fill="none"/></clipPath></defs><rect width="64.899" height="81.37" rx="4" transform="translate(0.059 0.591)" fill="lime"/><path d="M3.94.788A3.156,3.156,0,0,0,.788,3.94v74.08A3.156,3.156,0,0,0,3.94,81.173H60.683a3.156,3.156,0,0,0,3.152-3.152V3.94A3.156,3.156,0,0,0,60.683.788H3.94M3.94,0H60.683a3.94,3.94,0,0,1,3.94,3.94v74.08a3.94,3.94,0,0,1-3.94,3.94H3.94A3.94,3.94,0,0,1,0,78.021V3.94A3.94,3.94,0,0,1,3.94,0Z" fill="#00ff02"/><text transform="translate(30.885 69.885)" font-size="8" font-family="Roboto-Medium, Roboto" font-weight="500"><tspan x="-14.346" y="0">Positive</tspan></text><g transform="translate(14.186 19.117)"><g clip-path="url(#a)"><path d="M18.493,36.985A18.493,18.493,0,1,1,36.985,18.493,18.514,18.514,0,0,1,18.493,36.985m0-35.734A17.241,17.241,0,1,0,35.734,18.493,17.261,17.261,0,0,0,18.493,1.251"/><path d="M171.529,404.388a9.27,9.27,0,0,1-8.816-6.922.625.625,0,0,1,.834-.746,20.97,20.97,0,0,0,15.959.009.626.626,0,0,1,.834.748,9.27,9.27,0,0,1-8.812,6.91m-7.174-6.04a7.769,7.769,0,0,0,14.344.009,21.986,21.986,0,0,1-14.344-.009" transform="translate(-153.035 -373.132)"/><path d="M341.551,173.692a1.218,1.218,0,0,1-.762-.267c-1.05-.841-4.409-3.843-3.516-7.154a3.412,3.412,0,0,1,2.3-2.514,3.47,3.47,0,0,1,3.908,1.563,3.467,3.467,0,0,1,4.164.615,3.407,3.407,0,0,1,.724,3.327c-.894,3.314-5.308,4.218-6.639,4.415a1.139,1.139,0,0,1-.178.013m-1.044-8.821a1.991,1.991,0,0,0-.572.084,2.148,2.148,0,0,0-1.454,1.642c-.714,2.645,2.449,5.34,3.091,5.853.786-.128,4.875-.864,5.589-3.511a2.145,2.145,0,0,0-.431-2.15,2.2,2.2,0,0,0-2.7-.34l-.466.267a.625.625,0,0,1-.853-.23l-.267-.464a2.266,2.266,0,0,0-1.934-1.15" transform="translate(-317.114 -153.909)"/><path d="M101.012,173.67a1.148,1.148,0,0,1-.179-.013c-1.331-.2-5.744-1.1-6.638-4.415a3.406,3.406,0,0,1,.723-3.328,3.468,3.468,0,0,1,4.165-.613,3.46,3.46,0,0,1,3.908-1.564,3.411,3.411,0,0,1,2.3,2.514c.892,3.311-2.466,6.313-3.517,7.155a1.209,1.209,0,0,1-.76.266m-3.635-7.554a2.1,2.1,0,0,0-1.544.649,2.2,2.2,0,0,0-.431,2.15c.715,2.647,4.8,3.384,5.615,3.5.615-.506,3.778-3.2,3.064-5.846a2.149,2.149,0,0,0-1.453-1.642A2.21,2.21,0,0,0,100.122,166l-.268.465a.626.626,0,0,1-.853.229l-.465-.267a2.33,2.33,0,0,0-1.158-.31" transform="translate(-88.463 -153.888)"/></g></g></svg>