<?xml version="1.0" encoding="utf-8"?>
<!-- Generator: Adobe Illustrator 27.0.0, SVG Export Plug-In . SVG Version: 6.00 Build 0)  -->
<svg version="1.1" id="Layer_1" xmlns="http://www.w3.org/2000/svg" xmlns:xlink="http://www.w3.org/1999/xlink" x="0px" y="0px"
	 viewBox="0 0 85 84.7" style="enable-background:new 0 0 85 84.7;" xml:space="preserve">
<style type="text/css">
	.st0{display:none;}
	.st1{display:inline;fill:#F2F2F3;}
	.st2{display:inline;fill:#E52227;}
	.st3{display:inline;fill:#4C2D7D;}
	.st4{display:inline;fill:#7CD1ED;}
	.st5{fill:#F2F2F3;}
	.st6{fill:#FCC419;}
</style>
<g class="st0">
	<path class="st1" d="M42.5,2.4L42.5,2.4c-22.1,0-40,17.9-40,40v0c0,22.1,17.9,40,40,40h0c22.1,0,40-17.9,40-40v0
		C82.5,20.4,64.6,2.4,42.5,2.4z M75,42.4c0,17.9-14.6,32.5-32.5,32.5h0C24.6,74.9,10,60.4,10,42.4v0C10,24.5,24.6,9.9,42.5,9.9h0
		C60.5,9.9,75,24.5,75,42.4L75,42.4z"/>
	<path class="st2" d="M42.5,2.4L42.5,2.4C42.5,2.4,42.5,2.5,42.5,2.4l0,7.5c0,0,0,0,0,0h0C60.5,9.9,75,24.5,75,42.4v0
		c0,17.9-14.6,32.5-32.5,32.5h0C24.6,74.9,10,60.4,10,42.4v0c0-1.4,0.1-2.7,0.3-4H2.7c-0.1,1.3-0.2,2.7-0.2,4v0
		c0,22.1,17.9,40,40,40h0c22.1,0,40-17.9,40-40v0C82.5,20.4,64.6,2.4,42.5,2.4z"/>
</g>
<g class="st0">
	<path class="st1" d="M42.5,2.4L42.5,2.4c-22.1,0-40,17.9-40,40v0c0,22.1,17.9,40,40,40h0c22.1,0,40-17.9,40-40v0
		C82.5,20.4,64.6,2.4,42.5,2.4z M75,42.4c0,17.9-14.6,32.5-32.5,32.5h0C24.6,74.9,10,60.4,10,42.4v0C10,24.5,24.6,9.9,42.5,9.9h0
		C60.5,9.9,75,24.5,75,42.4L75,42.4z"/>
	<path class="st3" d="M42.5,2.4L42.5,2.4C42.5,2.4,42.5,2.5,42.5,2.4l0,7.5c0,0,0,0,0,0h0C60.5,9.9,75,24.5,75,42.4v0
		c0,17.9-14.6,32.5-32.5,32.5h0c-12.2,0-22.9-6.7-28.4-16.7C12,59.6,9.9,61.1,8,62.7c7,11.8,19.8,19.8,34.5,19.8h0
		c22.1,0,40-17.9,40-40v0C82.5,20.4,64.6,2.4,42.5,2.4z"/>
</g>
<g class="st0">
	<path class="st1" d="M42.5,2.4L42.5,2.4c-22.1,0-40,17.9-40,40v0c0,22.1,17.9,40,40,40h0c22.1,0,40-17.9,40-40v0
		C82.5,20.4,64.6,2.4,42.5,2.4z M75,42.4c0,17.9-14.6,32.5-32.5,32.5h0C24.6,74.9,10,60.4,10,42.4v0C10,24.5,24.6,9.9,42.5,9.9h0
		C60.5,9.9,75,24.5,75,42.4L75,42.4z"/>
	<path class="st4" d="M42.5,2.4L42.5,2.4C42.5,2.4,42.5,2.5,42.5,2.4l0,7.5c0,0,0,0,0,0h0C60.5,9.9,75,24.5,75,42.4v0
		C75,60,61.2,74.2,43.8,74.9c0.1,2.5,0.1,5,0,7.5c21.5-0.7,38.7-18.3,38.7-40v0C82.5,20.4,64.6,2.4,42.5,2.4z"/>
</g>
<g>
	<path class="st5" d="M42.5,2.4L42.5,2.4c-22.1,0-40,17.9-40,40v0c0,22.1,17.9,40,40,40h0c22.1,0,40-17.9,40-40v0
		C82.5,20.4,64.6,2.4,42.5,2.4z M75,42.4c0,17.9-14.6,32.5-32.5,32.5h0C24.6,74.9,10,60.4,10,42.4v0C10,24.5,24.6,9.9,42.5,9.9h0
		C60.5,9.9,75,24.5,75,42.4L75,42.4z"/>
	<path class="st6" d="M75,42.4L75,42.4c0,5.8-1.5,11.3-4.2,16.1c2.4,0.8,4.8,1.7,7.2,2.5c2.9-5.6,4.6-11.9,4.6-18.6v0
		c0-22.1-17.9-40-40-40h0c0,0,0,0,0,0V10c0,0,0,0,0,0h0C60.5,9.9,75,24.5,75,42.4z"/>
</g>
</svg>
