<?xml version="1.0" encoding="UTF-8"?>
<svg id="Layer_1" data-name="Layer 1" xmlns="http://www.w3.org/2000/svg" viewBox="0 0 84.98 84.74">
  <defs>
    <style>
      .cls-1 {
        fill: #f2f2f3;
      }

      .cls-2 {
        fill: #e52227;
      }
    </style>
  </defs>
  <path class="cls-1" d="M42.52,2.45h0C20.42,2.45,2.52,20.36,2.52,42.45h0c0,22.09,17.91,40,40,40h0c22.09,0,40-17.91,40-40h0c0-22.09-17.91-40-40-40Zm32.5,40c0,17.95-14.55,32.5-32.5,32.5h0c-17.95,0-32.5-14.55-32.5-32.5h0c0-17.95,14.55-32.5,32.5-32.5h0c17.95,0,32.5,14.55,32.5,32.5h0Z"/>
  <path class="cls-2" d="M42.52,2.45h0s-.03,0-.05,0v7.5s.03,0,.05,0h0c17.95,0,32.5,14.55,32.5,32.5h0c0,17.95-14.55,32.5-32.5,32.5h0c-17.95,0-32.5-14.55-32.5-32.5h0c0-1.37,.09-2.71,.26-4.04H2.72c-.13,1.33-.2,2.67-.2,4.04h0c0,22.09,17.91,40,40,40h0c22.09,0,40-17.91,40-40h0c0-22.09-17.91-40-40-40Z"/>
</svg>