<?xml version="1.0" encoding="UTF-8"?>
<svg id="Layer_1" data-name="Layer 1" xmlns="http://www.w3.org/2000/svg" viewBox="0 0 84.98 84.74">
  <defs>
    <style>
      .cls-1 {
        fill: #f2f2f3;
      }

      .cls-2 {
        fill: #fcc419;
      }
    </style>
  </defs>
  <path class="cls-1" d="M42.52,2.45h0C20.42,2.45,2.52,20.36,2.52,42.45h0c0,22.09,17.91,40,40,40h0c22.09,0,40-17.91,40-40h0c0-22.09-17.91-40-40-40Zm32.5,40c0,17.95-14.55,32.5-32.5,32.5h0c-17.95,0-32.5-14.55-32.5-32.5h0c0-17.95,14.55-32.5,32.5-32.5h0c17.95,0,32.5,14.55,32.5,32.5h0Z"/>
  <path class="cls-2" d="M75.02,42.45h0c0,5.84-1.55,11.32-4.25,16.06,2.4,.82,4.79,1.66,7.16,2.54,2.92-5.56,4.58-11.88,4.58-18.6h0c0-22.09-17.91-40-40-40h0s-.03,0-.05,0v7.5s.03,0,.05,0h0c17.95,0,32.5,14.55,32.5,32.5Z"/>
</svg>