<svg xmlns="http://www.w3.org/2000/svg" xmlns:xlink="http://www.w3.org/1999/xlink" width="65.476" height="82" viewBox="0 0 65.476 82"><defs><clipPath id="a"><rect width="37.134" height="37.134" fill="#fff"/></clipPath></defs><rect width="65" height="82" rx="4" transform="translate(0.476)" fill="#2f2f2f"/><path d="M3.94.788A3.156,3.156,0,0,0,.788,3.94v74.08A3.156,3.156,0,0,0,3.94,81.173H60.683a3.156,3.156,0,0,0,3.152-3.152V3.94A3.156,3.156,0,0,0,60.683.788H3.94M3.94,0H60.683a3.94,3.94,0,0,1,3.94,3.94v74.08a3.94,3.94,0,0,1-3.94,3.94H3.94A3.94,3.94,0,0,1,0,78.021V3.94A3.94,3.94,0,0,1,3.94,0Z" fill="#2f2f2f"/><text transform="translate(31.476 70)" fill="#fff" font-size="8" font-family="Roboto-Medium, Roboto" font-weight="500"><tspan x="-6.836" y="0">Sad</tspan></text><g transform="translate(13.397 18.914)"><g clip-path="url(#a)"><path d="M18.567,37.134A18.567,18.567,0,1,1,37.134,18.567,18.589,18.589,0,0,1,18.567,37.134m0-35.878A17.311,17.311,0,1,0,35.878,18.567,17.33,17.33,0,0,0,18.567,1.256" fill="#fff"/><path d="M171.213,205.678a3.147,3.147,0,1,1,2.733-3.119,2.948,2.948,0,0,1-2.733,3.119m0-4.983a1.914,1.914,0,1,0,1.476,1.864,1.705,1.705,0,0,0-1.476-1.864" transform="translate(-158.441 -187.554)" fill="#fff"/><path d="M365.7,205.678a3.147,3.147,0,1,1,2.732-3.119,2.948,2.948,0,0,1-2.732,3.119m0-4.983a1.914,1.914,0,1,0,1.476,1.864A1.705,1.705,0,0,0,365.7,200.7" transform="translate(-341.336 -187.554)" fill="#fff"/><path d="M194.043,418.755a.629.629,0,0,1-.364-.117c-4.654-3.328-9.177-3.328-13.831,0a.628.628,0,0,1-.73-1.022c5.073-3.626,10.219-3.626,15.291,0a.628.628,0,0,1-.366,1.139" transform="translate(-168.196 -390.171)" fill="#fff"/></g></g></svg>