<?xml version="1.0" encoding="UTF-8"?>
<svg id="Layer_2" data-name="Layer 2" xmlns="http://www.w3.org/2000/svg" viewBox="0 0 309.45 282.31">
  <defs>
    <style>
      .cls-1 {
        fill: #0e73b8;
      }
    </style>
  </defs>
  <path class="cls-1" d="M10.38,218.59V60.19c0-4.53,3.67-8.2,8.2-8.2h21.6c4.53,0,8.2,3.67,8.2,8.2V125.06h208.25V60.19c0-4.53,3.67-8.2,8.2-8.2h23.06c4.53,0,8.2,3.67,8.2,8.2V218.59H10.38Z"/>
  <polygon class="cls-1" points="14.37 212.75 17.01 270.7 21.52 270.7 24.91 212.75 14.37 212.75"/>
  <polygon class="cls-1" points="282.37 212.75 285.01 270.7 289.52 270.7 292.91 212.75 282.37 212.75"/>
  <path class="cls-1" d="M153.37,108.74c35.68,0,69.12,2.26,97.92,6.21V22.63c0-5.58-4.52-10.1-10.1-10.1H65.55c-5.58,0-10.1,4.52-10.1,10.1V114.95c28.8-3.95,62.24-6.21,97.92-6.21Z"/>
</svg>