<svg xmlns="http://www.w3.org/2000/svg" xmlns:xlink="http://www.w3.org/1999/xlink" width="66.727" height="83.079" viewBox="0 0 66.727 83.079"><defs><clipPath id="a"><rect width="37.615" height="41.556" fill="#fff"/></clipPath></defs><rect width="66.666" height="82.715" rx="5" transform="translate(0.061)" fill="#037bd3"/><path d="M4.048.81A3.242,3.242,0,0,0,.81,4.048V78.525a3.242,3.242,0,0,0,3.238,3.238H62.335a3.242,3.242,0,0,0,3.238-3.238V4.048A3.242,3.242,0,0,0,62.335.81H4.048m0-.81H62.335a4.048,4.048,0,0,1,4.048,4.048V78.525a4.048,4.048,0,0,1-4.048,4.048H4.048A4.048,4.048,0,0,1,0,78.525V4.048A4.048,4.048,0,0,1,4.048,0Z" transform="translate(0 0.506)" fill="#037bd3"/><text transform="translate(31.814 72.197)" fill="#fff" font-size="8" font-family="Roboto-Medium, Roboto" font-weight="500"><tspan x="-11.85" y="0">Strong</tspan></text><g transform="translate(14.572 20.144)"><g clip-path="url(#a)"><path d="M25.5,36.345a.636.636,0,0,1-.234-1.228,17.536,17.536,0,1,0-12.915,0,.636.636,0,1,1-.468,1.183,18.807,18.807,0,1,1,13.851,0,.63.63,0,0,1-.234.045" fill="#fff"/><path d="M330.692,182.422a6.693,6.693,0,1,1,6.694-6.694,6.7,6.7,0,0,1-6.694,6.694m0-12.114a5.421,5.421,0,1,0,5.421,5.42,5.426,5.426,0,0,0-5.421-5.42" transform="translate(-304.44 -158.831)" fill="#fff"/><path d="M403.832,246.736a2.131,2.131,0,1,1-2.131-2.131,2.131,2.131,0,0,1,2.131,2.131" transform="translate(-375.448 -229.839)" fill="#fff"/><path d="M78.021,258.3a.636.636,0,0,1-.351-1.168,9.292,9.292,0,0,1,10.989,0,.636.636,0,1,1-.7,1.063,8.016,8.016,0,0,0-9.59,0,.636.636,0,0,1-.349.105" transform="translate(-72.713 -239.92)" fill="#fff"/><path d="M140.56,429.875a.634.634,0,0,1-.386-.131,11.547,11.547,0,0,1-4.081-6.094.636.636,0,0,1,.848-.759,25.538,25.538,0,0,0,19.446.011.637.637,0,0,1,.848.761,11.563,11.563,0,0,1-4.037,6.05.636.636,0,0,1-.778-1.007,10.216,10.216,0,0,0,3.161-4.147,26.558,26.558,0,0,1-17.84-.011,10.22,10.22,0,0,0,3.2,4.186.636.636,0,0,1-.386,1.142" transform="translate(-127.856 -397.321)" fill="#fff"/><path d="M242.925,506.3a4.344,4.344,0,0,1-4.409-4.266v-6.8a.636.636,0,1,1,1.273,0v6.8a3.141,3.141,0,0,0,6.274,0v-6.8a.636.636,0,1,1,1.273,0v6.8a4.345,4.345,0,0,1-4.41,4.266" transform="translate(-224.118 -464.744)" fill="#fff"/></g></g></svg>