<?xml version="1.0" encoding="utf-8"?>
<!-- Generator: Adobe Illustrator 27.0.0, SVG Export Plug-In . SVG Version: 6.00 Build 0)  -->
<svg version="1.1" id="Layer_1" xmlns="http://www.w3.org/2000/svg" xmlns:xlink="http://www.w3.org/1999/xlink" x="0px" y="0px"
	 viewBox="0 0 109.4 109.7" style="enable-background:new 0 0 109.4 109.7;" xml:space="preserve">
<style type="text/css">
	.st0{fill-rule:evenodd;clip-rule:evenodd;fill:#0C72BC;}
</style>
<g>
	<g id="Mask_Group_1" transform="translate(-1024.464 -538.464)">
		<g id="__TEMP__SVG__" transform="translate(1024.011 538.011)">
			<path id="Path_229" class="st0" d="M107.7,55.2c0,29-23.5,52.5-52.5,52.5S2.8,84.1,2.8,55.2c0-29,23.5-52.5,52.5-52.5
				c0,0,0,0,0,0C84.3,2.7,107.7,26.2,107.7,55.2z M81.7,35.3c-1.9-1.9-5-1.9-7,0c0,0-0.1,0.1-0.1,0.1l-22.8,29L38.1,50.7
				c-2-1.8-5.1-1.7-7,0.3c-1.7,1.9-1.7,4.8,0,6.6L48.5,75c1.9,1.9,5,1.9,7,0c0,0,0.1-0.1,0.1-0.1l26.2-32.7
				C83.6,40.2,83.6,37.2,81.7,35.3L81.7,35.3z"/>
		</g>
	</g>
</g>
</svg>
