<?xml version="1.0" encoding="utf-8"?>
<!-- Generator: Adobe Illustrator 27.0.0, SVG Export Plug-In . SVG Version: 6.00 Build 0)  -->
<svg version="1.1" id="Layer_1" xmlns="http://www.w3.org/2000/svg" xmlns:xlink="http://www.w3.org/1999/xlink" x="0px" y="0px"
	 viewBox="0 0 22.8 23.1" style="enable-background:new 0 0 22.8 23.1;" xml:space="preserve">
<style type="text/css">
	.st0{fill:#F7F6FB;}
	.st1{fill:#7552A2;}
	.st2{fill:none;}
</style>
<g id="Chart-5">
	<g id="Oval-14">
		<path class="st0" d="M11.4,2.8c-4.9,0-8.8,4-8.8,9s4,9,8.8,9s8.8-4,8.8-9S16.3,2.8,11.4,2.8z M11.4,0.8c6,0,10.9,4.9,10.9,11
			s-4.9,11-10.9,11s-10.9-4.9-10.9-11S5.4,0.8,11.4,0.8z"/>
		<path class="st1" d="M11.5,0.8c-0.1,0-0.1,0-0.2,0c0,0,0,0.1,0,0.1v1.9c0,0,0.1,0,0.1,0c4.9,0,8.8,4,8.8,9s-4,9-8.8,9
			s-8.8-4-8.8-9c0,0,0-0.1,0-0.1H0.6c0,0,0,0.1,0,0.1c0,6.1,4.9,11,10.9,11s10.9-4.9,10.9-11C22.3,5.7,17.5,0.8,11.5,0.8z"/>
		<path class="st2" d="M11.2,0.8c6,0.1,10.7,5,10.6,11c0.1,5.9-4.6,10.8-10.6,11c-5.9-0.1-10.7-5-10.6-11C0.5,5.8,5.2,0.9,11.2,0.8z
			"/>
	</g>
	<g id="Oval-15">
		<path class="st2" d="M11.3,0.8c6,0,11,4.8,11,10.9c0,6-4.8,10.9-10.9,11s-11-4.8-11-10.9c0,0,0,0,0-0.1C0.4,5.7,5.3,0.8,11.3,0.8z
			"/>
	</g>
	<path id="Icon-10" class="st1" d="M9.5,8.4l5.1,3.3L9.5,15L9.5,8.4L9.5,8.4z"/>
</g>
</svg>
