<?xml version="1.0" encoding="UTF-8"?>
<svg id="Layer_1" data-name="Layer 1" xmlns="http://www.w3.org/2000/svg" viewBox="0 0 260.33 135.98">
  <defs>
    <style>
      .cls-1 {
        fill: #f1a221;
      }

      .cls-2 {
        fill: #fff;
      }
    </style>
  </defs>
  <path class="cls-2" d="M0,1.28H24.32c3.73,0,6.83,.27,8.83,.64,8.93,1.91,14.58,9.29,14.58,18.94s-4.55,15.76-13.75,18.13l17.76,27.96h-19.4l-15.58-27.42s-.02,29.12-.05,29.21L0,58.3V1.28H0ZM16.76,30.97h4.1c6.01,0,9.56-3.1,9.56-8.56s-3.01-7.93-9.02-7.93h-4.65V30.97h.01Z"/>
  <path class="cls-2" d="M89.18,21.68h16.31v45.27h-16.31v-5.74c-2.46,4.73-6.65,7.1-12.75,7.1-11.57,0-19.67-9.93-19.67-24.05s8.56-23.77,19.86-23.77c4.46,0,8.47,1.55,11.02,4.28,.55,.64,.91,1.18,1.55,2.46v-5.56h-.01Zm-16.85,22.69c0,6.38,3.65,10.66,8.93,10.66s8.93-4.28,8.93-10.66-3.83-10.48-9.02-10.48-8.83,4.28-8.83,10.48h0Z"/>
  <path class="cls-2" d="M113.13,21.68h6.65v-6.01c0-9.2,6.83-15.67,16.49-15.67,3.92,0,7.2,.55,11.66,1.91l-1.55,10.93c-1.37-.37-2.46-.55-3.73-.55-4.37,0-6.65,2.18-6.65,6.2v3.19h10.48v13.21h-10.48v52.57h-16.21V34.89h-6.65v-13.21h-.01Z"/>
  <path class="cls-2" d="M159.9,1.37c4.42,0,8.06,3.55,8.06,7.83s-3.65,7.93-8.06,7.93-8.06-3.55-8.06-7.93,3.57-7.83,8.06-7.83h0Zm-8.06,20.31h16.12V87.46h-16.12V21.68Z"/>
  <path class="cls-2" d="M177.55,1.28h16.31V41.45l12.84-19.77h18.76l-15.3,21.86,16.76,23.41h-19.86l-13.21-20.95v20.95h-16.31V1.29h.01Z"/>
  <path class="cls-1" d="M195.78,90.74c-9.06,3.05-18.55,6.22-27.71,8.88-21.99,6.47-45.4,10.95-67.53,10.04C63.53,108.62,28.55,91.45,0,66.95c7.07,19.93,22.73,37.49,39.45,49.07,45.67,31.67,104.67,23.39,147.82-9.05,6.17-4.63,12.05-9.68,17.52-15.2,1.8-1.89,3.58-3.76,5.27-5.75-4.84,1.45-9.54,3.11-14.28,4.71h0Zm-86.66,34.96c-11.21,1.1-22.91-.56-33.12-5.09-2.33-1.09-4.78-2.24-6.71-3.86,2.31,1.08,4.85,1.77,7.31,2.49,7.97,2.25,16.27,3.49,24.56,3.76,9.71,.29,19.13-1,28.56-3.11-6.25,3.16-13.4,5.07-20.6,5.8h0Z"/>
  <rect class="cls-2" x="230.98" y="21.6" width="16.12" height="35.63"/>
  <g>
    <path class="cls-1" d="M239.66,66.42c11.32,0,20.67,9.15,20.67,20.17s-9.34,20.41-20.67,20.41-20.67-9.15-20.67-20.41,9.14-20.17,20.67-20.17h0Z"/>
    <g>
      <rect class="cls-2" x="235.76" y="76.61" width="7.47" height="20.22" rx="1.4" ry="1.4"/>
      <rect class="cls-2" x="229.39" y="83.62" width="20.22" height="6.19" rx="1.6" ry="1.6"/>
    </g>
  </g>
</svg>